Coordinates
version=1
nRows=26
nColumns=24
inDegrees=yes

Units are S.I. units (second, meters, Newtons, ...)
Angles are in degrees.

endheader
time	pelvis_tilt	pelvis_list	pelvis_rotation	pelvis_tx	pelvis_ty	pelvis_tz	hip_flexion_r	hip_adduction_r	hip_rotation_r	knee_angle_r	ankle_angle_r	subtalar_angle_r	mtp_angle_r	hip_flexion_l	hip_adduction_l	hip_rotation_l	knee_angle_l	ankle_angle_l	subtalar_angle_l	mtp_angle_l	lumbar_extension	lumbar_bending	lumbar_rotation
      3.66500000	     25.37773902	      1.31836488	      0.66493757	      0.73096587	      1.02415242	      0.02757275	    -30.74057887	     -4.46661274	    -11.89678354	    -36.16816068	      0.16732520	     -0.40162132	     54.42476514	     -7.18931238	      2.21991943	     -4.10081015	    -19.31382525	      4.00241469	     -6.71191819	      3.67543879	    -39.30105906	     -2.58069850	      1.63865351
      3.67000000	     25.31400936	      1.39065873	      0.54840211	      0.73615172	      1.02439793	      0.02696978	    -29.94136005	     -4.83845278	    -11.80451501	    -37.58279257	     -0.68836197	     -0.91938880	     54.56629195	     -7.35678708	      2.34325913	     -4.24563770	    -19.51847828	      4.49696252	     -6.56756714	      3.63949748	    -39.18273347	     -2.73652590	      1.62096934
      3.67500000	     25.26575423	      1.42350340	      0.42710128	      0.74123658	      1.02467063	      0.02645685	    -29.14831535	     -5.15469782	    -11.66617663	    -38.94732339	     -1.48166333	     -1.49897995	     54.80947255	     -7.54877288	      2.41005056	     -4.46944772	    -19.69953432	      5.00507682	     -6.37016242	      3.54982126	    -39.08661586	     -2.86312728	      1.61476011
      3.68000000	     25.21818588	      1.46318367	      0.30030113	      0.74625030	      1.02496218	      0.02596748	    -28.34902510	     -5.47141488	    -11.52570743	    -40.27626143	     -2.12041815	     -2.12403177	     55.00453562	     -7.77466862	      2.48766132	     -4.67143600	    -19.80765491	      5.46958470	     -6.15296101	      3.45825675	    -38.99518153	     -2.99674396	      1.62686935
      3.68500000	     25.16074790	      1.48105876	      0.18149294	      0.75117686	      1.02526644	      0.02553577	    -27.53198710	     -5.74355432	    -11.36334168	    -41.55818174	     -2.64587597	     -2.78623303	     55.14402166	     -7.99945956	      2.53399095	     -4.88971571	    -19.88680070	      5.91587731	     -5.90638823	      3.35670617	    -38.89865060	     -3.10797668	      1.63875903
      3.69000000	     25.09900777	      1.48294827	      0.07027902	      0.75600425	      1.02557122	      0.02513450	    -26.70284645	     -5.98358820	    -11.19699557	    -42.79755536	     -3.02465844	     -3.47570346	     55.19187523	     -8.22559822	      2.56088538	     -5.09991120	    -19.94225576	      6.34418898	     -5.65809816	      3.26198372	    -38.80561011	     -3.20012547	      1.65265728
      3.69500000	     25.01958536	      1.48287101	     -0.03264411	      0.76074989	      1.02588711	      0.02478725	    -25.85143675	     -6.19883550	    -11.02313231	    -43.98896423	     -3.25692802	     -4.17759759	     55.14767543	     -8.44774803	      2.58511300	     -5.27198947	    -19.95188601	      6.71923625	     -5.40902760	      3.18901137	    -38.69936395	     -3.28961296	      1.64872021
      3.70000000	     24.92185491	      1.44475566	     -0.10942811	      0.76536142	      1.02617265	      0.02446570	    -24.96944631	     -6.35020058	    -10.85365742	    -45.13633369	     -3.38989623	     -4.88654122	     55.02637277	     -8.62530361	      2.55903507	     -5.44325237	    -19.99797473	      7.12380221	     -5.16414978	      3.11229977	    -38.58578876	     -3.32978671	      1.65269916
      3.70500000	     24.81199864	      1.38037531	     -0.15743451	      0.76986276	      1.02646353	      0.02415961	    -24.07364471	     -6.44754091	    -10.69857949	    -46.22564389	     -3.42838815	     -5.59308757	     54.80141314	     -8.77457850	      2.49808702	     -5.59197977	    -20.06063431	      7.53074194	     -4.93009241	      3.01066699	    -38.46874449	     -3.32967555	      1.66096379
      3.71000000	     24.68582969	      1.31766828	     -0.15805886	      0.77429628	      1.02673175	      0.02390296	    -23.16964950	     -6.51089936	    -10.59040720	    -47.27152571	     -3.26133439	     -6.09495066	     53.20095557	     -8.89279011	      2.41734668	     -5.70196083	    -20.14534643	      8.07152133	     -4.50657376	      2.06844668	    -38.34224750	     -3.31307248	      1.59576140
      3.71500000	     24.54258561	      1.23802943	     -0.15642021	      0.77859639	      1.02700604	      0.02364811	    -22.23962433	     -6.53762973	    -10.46614978	    -48.24791122	     -3.10484066	     -6.83425680	     52.99187082	     -8.99770638	      2.34504960	     -5.69684124	    -20.18665497	      8.36781225	     -4.48118983	      2.00097285	    -38.20903471	     -3.27583209	      1.56371599
      3.72000000	     24.38931549	      1.14860258	     -0.10189816	      0.78280543	      1.02727069	      0.02339268	    -21.30960983	     -6.52560173	    -10.40129662	    -49.15888449	     -2.92341135	     -7.50612004	     52.70096396	     -9.06541150	      2.24296503	     -5.64909478	    -20.26912934	      8.70167791	     -4.32379606	      1.95790861	    -38.07502076	     -3.20383480	      1.50564428
      3.72500000	     24.20802192	      1.06562262	     -0.01532105	      0.78696236	      1.02748523	      0.02316948	    -20.35680678	     -6.49605920	    -10.36215653	    -50.03439852	     -2.48041743	     -7.85069404	     50.70450063	     -9.08987909	      2.13683676	     -5.56609023	    -20.36733059	      9.11061085	     -4.09732773	      1.41685022	    -37.91713201	     -3.12329551	      1.38663648
      3.73000000	     24.05303389	      0.94320150	      0.12262709	      0.79102779	      1.02778319	      0.02293078	    -19.45664701	     -6.38402464	    -10.36309723	    -50.78190481	     -2.26161600	     -8.58287780	     50.50529674	     -9.13852100	      1.99102197	     -5.37203946	    -20.45466629	      9.39607599	     -4.07172947	      1.39999439	    -37.79622719	     -2.97880847	      1.27228561
      3.73500000	     23.86705068	      0.84477712	      0.28549356	      0.79508709	      1.02803827	      0.02271395	    -18.53681443	     -6.28345807	    -10.40346037	    -51.47285594	     -1.94783298	     -9.17185986	     50.25979544	     -9.15127057	      1.86207385	     -5.14720013	    -20.54000775	      9.67801710	     -3.97376563	      1.39266111	    -37.64261599	     -2.84611213	      1.10064038
      3.74000000	     23.66286582	      0.70371956	      0.46682720	      0.79900595	      1.02824259	      0.02248622	    -17.58469432	     -6.12681777	    -10.44052197	    -52.12345810	     -1.58589238	     -9.60946539	     49.69103657	     -9.10446164	      1.69074233	     -4.87862129	    -20.69004982	     10.01761178	     -3.98275957	      1.33799113	    -37.48261199	     -2.66217313	      0.97909209
      3.74500000	     23.49252661	      0.60440117	      0.70020753	      0.80304823	      1.02855254	      0.02226979	    -16.73110262	     -5.98710446	    -10.57560734	    -52.64459256	     -1.23977947	    -10.14744139	     49.31147492	     -9.13902199	      1.54790308	     -4.55346366	    -20.75269232	     10.25993682	     -3.88566774	      1.31899866	    -37.34656134	     -2.49323912	      0.74012511
      3.75000000	     23.28968844	      0.47608716	      0.93922382	      0.80698888	      1.02880571	      0.02205313	    -15.82919969	     -5.80882104	    -10.69185801	    -53.12673782	     -0.86819950	    -10.56510559	     48.83333689	     -9.11102976	      1.37960787	     -4.19795681	    -20.85584756	     10.53374362	     -3.87443637	      1.28480336	    -37.18516048	     -2.29373708	      0.53663505
      3.75500000	     23.12816143	      0.40125273	      1.13095165	      0.81094399	      1.02908464	      0.02191053	    -14.96926064	     -5.70294616	    -10.79099217	    -53.59878514	     -0.21614867	    -10.59854448	     45.74552897	     -9.14972629	      1.27428407	     -3.89983406	    -20.92583337	     10.82812264	     -3.84929939	      0.87222762	    -37.06541296	     -2.17036944	      0.33241359
      3.76000000	     23.02206152	      0.25653093	      1.40518445	      0.81492545	      1.02950637	      0.02171110	    -14.23212929	     -5.47683695	    -10.95649737	    -53.87948569	      0.10417268	    -11.02439633	     45.63757420	     -9.25942154	      1.07724739	     -3.52240879	    -20.96524131	     11.05998604	     -3.85417441	      0.87537832	    -36.99999712	     -1.93632200	      0.11196474
      3.76500000	     22.88324270	      0.14496840	      1.64593903	      0.81893041	      1.02986635	      0.02150679	    -13.45229178	     -5.31130402	    -11.12541726	    -54.13606428	      0.45596014	    -11.35177376	     45.45083478	     -9.34503061	      0.92696997	     -3.15256638	    -20.98943646	     11.29134825	     -3.85350004	      0.87087672	    -36.89642150	     -1.74582606	     -0.09210098
      3.77000000	     22.75370415	      0.04685155	      1.87125201	      0.82295620	      1.03024360	      0.02132262	    -12.69241758	     -5.16165156	    -11.28925648	    -54.33343181	      0.82087162	    -11.62473815	     45.16572624	     -9.45836771	      0.79469730	     -2.79171057	    -20.98169636	     11.50700902	     -3.87236188	      0.85503933	    -36.79978137	     -1.57537286	     -0.29917835
      3.77500000	     22.66542478	     -0.05217956	      2.09428638	      0.82702171	      1.03068951	      0.02114693	    -11.99967764	     -5.00355129	    -11.45479544	    -54.44927349	      1.18481824	    -11.86385759	     44.82770156	     -9.63722002	      0.65596867	     -2.45864802	    -20.93873678	     11.70833520	     -3.87973335	      0.83631938	    -36.74314675	     -1.40315683	     -0.50324834
      3.78000000	     22.68172549	     -0.12707653	      2.19941270	      0.83121456	      1.03130186	      0.02109556	    -11.43394255	     -4.89227973	    -11.52514513	    -54.48690353	      1.58638578	    -12.05009338	     44.74188888	    -10.00798412	      0.55695454	     -2.27698727	    -20.77540105	     11.87306743	     -3.89452396	      0.84210542	    -36.78171696	     -1.31185425	     -0.59741710
      3.78500000	     22.59256514	     -0.21452184	      2.38233151	      0.83537728	      1.03174439	      0.02090686	    -10.75722375	     -4.76402123	    -11.68373315	    -54.51723247	      2.12534252	    -11.92099224	     41.90637200	    -10.22546171	      0.43964095	     -1.98430153	    -20.67374601	     12.08802195	     -3.90023583	      0.56715434	    -36.71383238	     -1.16131029	     -0.78402923
      3.79000000	     22.61386783	     -0.27435979	      2.46647397	      0.83965312	      1.03236458	      0.02083467	    -10.22338332	     -4.67350837	    -11.76198112	    -54.43522600	      2.45616912	    -12.10187531	     41.89486701	    -10.63669251	      0.35937351	     -1.82489500	    -20.45516461	     12.22400449	     -3.89601165	      0.57634061	    -36.74975084	     -1.08770707	     -0.87390117
